<svg width="20" height="20" viewBox="0 0 20 20" fill="none" xmlns="http://www.w3.org/2000/svg">
<path fill-rule="evenodd" clip-rule="evenodd" d="M14.782 9.81199C14.7871 9.82147 14.7917 9.83091 14.7956 9.84048C14.8379 9.94258 14.8379 10.0573 14.7956 10.1594C14.7639 10.236 14.6953 10.3046 14.558 10.4419L7.19232 17.8076C7.05504 17.9449 6.9864 18.0135 6.90983 18.0452C6.80773 18.0875 6.69302 18.0875 6.59092 18.0452C6.51435 18.0135 6.44571 17.9449 6.30843 17.8076C6.17115 17.6703 6.10251 17.6017 6.0708 17.5251C6.02851 17.423 6.02851 17.3083 6.0708 17.2062C6.10251 17.1296 6.17115 17.061 6.30843 16.9237L13.2322 9.99993L6.30841 3.07615C6.17114 2.93887 6.1025 2.87023 6.07078 2.79366C6.02849 2.69156 6.02849 2.57685 6.07078 2.47476C6.1025 2.39818 6.17114 2.32954 6.30842 2.19227C6.44569 2.05499 6.51433 1.98635 6.59091 1.95463C6.693 1.91234 6.80771 1.91234 6.90981 1.95463C6.98638 1.98635 7.05502 2.05499 7.1923 2.19227L14.558 9.55796C14.6276 9.62761 14.6796 9.67959 14.7181 9.7239C14.7459 9.75603 14.7667 9.78412 14.782 9.81199Z" fill="black" fill-opacity="0.9"/>
</svg>
