<svg width="20" height="20" viewBox="0 0 20 20" fill="none" xmlns="http://www.w3.org/2000/svg">
<path fill-rule="evenodd" clip-rule="evenodd" d="M9.00017 13.8596L9.00017 3.01931C9.00017 2.73929 9.00017 2.59928 9.05467 2.49232C9.10261 2.39824 9.1791 2.32175 9.27318 2.27381C9.38013 2.21931 9.52015 2.21931 9.80017 2.21931L10.2002 2.21931C10.4802 2.21931 10.6202 2.21931 10.7272 2.27381C10.8212 2.32175 10.8977 2.39824 10.9457 2.49232C11.0002 2.59927 11.0002 2.73929 11.0002 3.01931L11.0002 13.8589L15.7983 9.06075C15.9963 8.86274 16.0953 8.76374 16.2095 8.72664C16.3099 8.69401 16.4181 8.69401 16.5185 8.72664C16.6327 8.76374 16.7317 8.86274 16.9297 9.06075L17.2125 9.34359C17.4105 9.5416 17.5096 9.64061 17.5466 9.75477C17.5793 9.85519 17.5793 9.96337 17.5466 10.0638C17.5096 10.178 17.4105 10.277 17.2125 10.475L10.9669 16.7206C10.9322 16.7562 10.8929 16.7954 10.8488 16.8396L10.566 17.1224C10.3679 17.3204 10.2689 17.4194 10.1548 17.4565C10.0544 17.4891 9.94618 17.4891 9.84576 17.4565C9.7316 17.4194 9.63259 17.3204 9.43458 17.1224L2.78778 10.4756C2.58977 10.2776 2.49077 10.1786 2.45367 10.0644C2.42104 9.96401 2.42104 9.85583 2.45367 9.75541C2.49077 9.64125 2.58977 9.54224 2.78778 9.34423L3.07062 9.06139C3.26863 8.86338 3.36763 8.76438 3.4818 8.72729C3.58222 8.69466 3.69039 8.69466 3.79081 8.72729C3.90498 8.76438 4.00398 8.86338 4.20199 9.06139L9.00017 13.8596Z" fill="#00010A" fill-opacity="0.93"/>
</svg>
