<svg width="16" height="16" viewBox="0 0 16 16" fill="none" xmlns="http://www.w3.org/2000/svg">
<path fill-rule="evenodd" clip-rule="evenodd" d="M3 2.16663C2.72386 2.16663 2.5 2.39048 2.5 2.66663V8.99996C2.5 9.2761 2.72386 9.49996 3 9.49996H4.66667V10.5H3C2.17157 10.5 1.5 9.82839 1.5 8.99996V2.66663C1.5 1.8382 2.17157 1.16663 3 1.16663H9C9.82843 1.16663 10.5 1.8382 10.5 2.66663V8.66663C10.5 9.67915 9.67919 10.5 8.66667 10.5H7.33333V9.49996H8.66667C9.1269 9.49996 9.5 9.12686 9.5 8.66663V2.66663C9.5 2.39048 9.27614 2.16663 9 2.16663H3ZM7 6.49996C6.72386 6.49996 6.5 6.72382 6.5 6.99996V13.3333C6.5 13.6094 6.72386 13.8333 7 13.8333H13C13.2761 13.8333 13.5 13.6094 13.5 13.3333V6.99996C13.5 6.72382 13.2761 6.49996 13 6.49996H11.3333V5.49996H13C13.8284 5.49996 14.5 6.17153 14.5 6.99996V13.3333C14.5 14.1617 13.8284 14.8333 13 14.8333H7C6.17157 14.8333 5.5 14.1617 5.5 13.3333V6.99996C5.5 6.17153 6.17157 5.49996 7 5.49996H8.66667V6.49996H7Z" fill="#00010A" fill-opacity="0.93"/>
</svg>
