<svg width="20" height="20" viewBox="0 0 20 20" fill="none" xmlns="http://www.w3.org/2000/svg">
<path d="M14.8333 3.75H14.5833H10.1667H7.56638C7.59284 3.62221 7.62986 3.51164 7.68164 3.41002C7.84143 3.09641 8.0964 2.84144 8.41 2.68166C8.76652 2.5 9.23323 2.5 10.1667 2.5H14.8333C15.7667 2.5 16.2335 2.5 16.59 2.68166C16.9036 2.84144 17.1585 3.09641 17.3183 3.41002C17.5 3.76654 17.5 4.23325 17.5 5.16667V11.5C17.5 12.4334 17.5 12.9001 17.3183 13.2567C17.1585 13.5703 16.9036 13.8252 16.59 13.985C16.4884 14.0368 16.3778 14.0738 16.25 14.1003V5.41667L16.25 5.41009V5.16667C16.25 4.67933 16.249 4.389 16.2314 4.17379C16.2207 4.04245 16.2065 3.98724 16.202 3.97244C16.1627 3.89804 16.1019 3.83724 16.0276 3.79804C16.0128 3.79345 15.9575 3.77929 15.8262 3.76856C15.611 3.75097 15.3207 3.75 14.8333 3.75ZM16.0319 3.79955L16.0293 3.79861L16.0311 3.79921C16.0316 3.79942 16.0319 3.79953 16.0319 3.79955ZM16.2007 3.96867C16.2005 3.96828 16.2005 3.9681 16.2004 3.96812L16.2014 3.97065C16.2011 3.96974 16.2008 3.96909 16.2007 3.96867ZM5.16667 6.25C4.67933 6.25 4.389 6.25097 4.17379 6.26856C4.04244 6.27929 3.98724 6.29345 3.97244 6.29804C3.89804 6.33724 3.83724 6.39804 3.79804 6.47244C3.79345 6.48724 3.77929 6.54245 3.76856 6.67379C3.75097 6.889 3.75 7.17933 3.75 7.66667V14.8333C3.75 15.3207 3.75097 15.611 3.76856 15.8262C3.77929 15.9576 3.79345 16.0128 3.79804 16.0276C3.83724 16.102 3.89804 16.1628 3.97244 16.202C3.98723 16.2066 4.04244 16.2207 4.17379 16.2314C4.389 16.249 4.67933 16.25 5.16667 16.25H12.3333C12.8207 16.25 13.111 16.249 13.3262 16.2314C13.4576 16.2207 13.5128 16.2066 13.5276 16.202C13.602 16.1628 13.6628 16.102 13.702 16.0276C13.7066 16.0128 13.7207 15.9576 13.7314 15.8262C13.749 15.611 13.75 15.3207 13.75 14.8333V7.66667C13.75 7.17933 13.749 6.889 13.7314 6.67379C13.7207 6.54245 13.7066 6.48724 13.702 6.47244C13.6628 6.39804 13.602 6.33724 13.5276 6.29804C13.5128 6.29345 13.4576 6.27929 13.3262 6.26856C13.111 6.25097 12.8207 6.25 12.3333 6.25H5.16667ZM13.5319 6.29955L13.5294 6.29861C13.5311 6.2992 13.5319 6.29953 13.5319 6.29955ZM13.7005 6.46812C13.7005 6.46808 13.7008 6.46887 13.7014 6.47065L13.7005 6.46812ZM13.7005 16.0319L13.7014 16.0294C13.7008 16.0311 13.7005 16.0319 13.7005 16.0319ZM13.5319 16.2005C13.5319 16.2005 13.5311 16.2008 13.5294 16.2014L13.5319 16.2005ZM3.96812 16.2005L3.97065 16.2014C3.96887 16.2008 3.96808 16.2005 3.96812 16.2005ZM3.79955 16.0319C3.79953 16.0319 3.7992 16.0311 3.79861 16.0294L3.79955 16.0319ZM3.79955 6.46812L3.79861 6.47065C3.7992 6.46887 3.79953 6.46808 3.79955 6.46812ZM3.96812 6.29955C3.96808 6.29953 3.96887 6.2992 3.97065 6.29861L3.96812 6.29955ZM2.5 7.66667C2.5 6.73325 2.5 6.26654 2.68166 5.91002C2.84144 5.59641 3.09641 5.34144 3.41002 5.18166C3.76654 5 4.23325 5 5.16667 5H12.3333C13.2668 5 13.7335 5 14.09 5.18166C14.4036 5.34144 14.6586 5.59641 14.8183 5.91002C15 6.26654 15 6.73325 15 7.66667V14.8333C15 15.7668 15 16.2335 14.8183 16.59C14.6586 16.9036 14.4036 17.1586 14.09 17.3183C13.7335 17.5 13.2668 17.5 12.3333 17.5H5.16667C4.23325 17.5 3.76654 17.5 3.41002 17.3183C3.09641 17.1586 2.84144 16.9036 2.68166 16.59C2.5 16.2335 2.5 15.7668 2.5 14.8333V7.66667Z" fill="black" fill-opacity="0.6" style="fill:black;fill-opacity:0.6;"/>
</svg>
