<svg width="20" height="20" viewBox="0 0 20 20" fill="none" xmlns="http://www.w3.org/2000/svg">
<path d="M9.34696 2.74557C9.1978 2.65419 9.03525 2.58685 8.86518 2.54602C8.72132 2.51149 8.57071 2.50285 8.33241 2.50069L3.96063 2.5005L3.61211 2.50482C3.13073 2.51618 2.8265 2.55424 2.57648 2.68163C2.26287 2.84142 2.0079 3.09638 1.84812 3.40999C1.72072 3.66002 1.68267 3.96423 1.6713 4.44562L1.66699 4.79414V14.3725L1.6713 14.721C1.68267 15.2024 1.72072 15.5066 1.84812 15.7566C2.0079 16.0702 2.26287 16.3252 2.57648 16.485C2.75474 16.5758 2.96055 16.6212 3.23847 16.6439L3.49538 16.6584L3.96063 16.6661H16.039L16.5042 16.6584L16.7611 16.6439C17.0391 16.6212 17.2449 16.5758 17.4231 16.485C17.7367 16.3252 17.9917 16.0702 18.1515 15.7566C18.2423 15.5784 18.2877 15.3726 18.3104 15.0947L18.3249 14.8377L18.3326 14.3725V7.29414L18.3249 6.82889L18.3104 6.57198C18.2877 6.29406 18.2423 6.08825 18.1515 5.90999C17.9917 5.59638 17.7367 5.34142 17.4231 5.18163C17.1731 5.05424 16.8689 5.01618 16.3875 5.00482L16.039 5.0005L11.6665 4.99997L9.84588 3.17948L9.67519 3.0121L9.53489 2.88428C9.46971 2.82865 9.41003 2.78422 9.34696 2.74557ZM3.83667 3.75145L8.33236 3.75069L8.50672 3.75494L8.5734 3.76149C8.6159 3.7717 8.65657 3.78854 8.69398 3.81146L8.80126 3.90579L10.7826 5.88388L10.8743 5.9669C11.0967 6.14911 11.3763 6.24994 11.6663 6.24997L16.1673 6.25146L16.475 6.25783L16.6802 6.26829L16.801 6.28131L16.8436 6.29066L16.8556 6.29537C16.934 6.33533 16.9978 6.39906 17.0376 6.47736L17.0475 6.50642L17.0604 6.59274L17.0707 6.74896L17.0823 7.35492L17.0831 14L17.0799 14.5644L17.0707 14.9176L17.0604 15.0738L17.0476 15.1601L17.0377 15.1891C16.9978 15.2676 16.934 15.3313 16.8557 15.3712L16.8267 15.381L16.7404 15.3939L16.5841 15.4042L15.9782 15.4158L4.33313 15.4166L3.7687 15.4134L3.41547 15.4042L3.25928 15.3939L3.17301 15.3811L3.144 15.3712C3.06555 15.3313 3.00182 15.2675 2.96187 15.1891C2.96031 15.1861 2.95873 15.1821 2.95716 15.1771L2.9478 15.1344L2.93477 15.0131L2.92431 14.8067L2.91794 14.4964V4.66566L2.92432 4.35802L2.93477 4.15292L2.9478 4.03215L2.95716 3.98948L2.96187 3.97749C3.00183 3.89907 3.06556 3.83534 3.14394 3.7954C3.14702 3.79383 3.15098 3.79226 3.15595 3.79068L3.19869 3.78132L3.31997 3.76829L3.52642 3.75783L3.83667 3.75145ZM4.61487 6.09054C4.58315 6.16711 4.58315 6.26419 4.58315 6.45833C4.58315 6.65247 4.58315 6.74954 4.61487 6.82611C4.65716 6.92821 4.73827 7.00932 4.84037 7.05161C4.91694 7.08333 5.01401 7.08333 5.20815 7.08333H9.16648L7.91648 5.83333H5.20815C5.01401 5.83333 4.91694 5.83333 4.84037 5.86505C4.73827 5.90733 4.65716 5.98845 4.61487 6.09054Z" fill="black" fill-opacity="0.9"/>
</svg>
