<svg width="20" height="20" viewBox="0 0 20 20" fill="none" xmlns="http://www.w3.org/2000/svg">
<path d="M5.33333 5C5.14924 5 5 5.14924 5 5.33333V8C5 8.18409 5.14924 8.33333 5.33333 8.33333H8C8.18409 8.33333 8.33333 8.18409 8.33333 8V5.33333C8.33333 5.14924 8.18409 5 8 5H5.33333ZM4 5.33333C4 4.59695 4.59695 4 5.33333 4H8C8.73638 4 9.33333 4.59695 9.33333 5.33333V8C9.33333 8.73638 8.73638 9.33333 8 9.33333H5.33333C4.59695 9.33333 4 8.73638 4 8V5.33333ZM12 5C11.8159 5 11.6667 5.14924 11.6667 5.33333V8C11.6667 8.1841 11.8159 8.33333 12 8.33333H14.6667C14.8508 8.33333 15 8.1841 15 8V5.33333C15 5.14924 14.8508 5 14.6667 5H12ZM10.6667 5.33333C10.6667 4.59695 11.2636 4 12 4H14.6667C15.403 4 16 4.59695 16 5.33333V8C16 8.73638 15.403 9.33333 14.6667 9.33333H12C11.2636 9.33333 10.6667 8.73638 10.6667 8V5.33333ZM8 11.6667C8.1841 11.6667 8.33333 11.8159 8.33333 12V14.6667C8.33333 14.8508 8.1841 15 8 15H5.33333C5.14924 15 5 14.8508 5 14.6667V12C5 11.8159 5.14924 11.6667 5.33333 11.6667H8ZM5.33333 10.6667C4.59695 10.6667 4 11.2636 4 12V14.6667C4 15.403 4.59695 16 5.33333 16H8C8.73638 16 9.33333 15.403 9.33333 14.6667V12C9.33333 11.2636 8.73638 10.6667 8 10.6667H5.33333ZM12 11.6667C11.8159 11.6667 11.6667 11.8159 11.6667 12V14.6667C11.6667 14.8508 11.8159 15 12 15H14.6667C14.8508 15 15 14.8508 15 14.6667V12C15 11.8159 14.8508 11.6667 14.6667 11.6667H12ZM10.6667 12C10.6667 11.2636 11.2636 10.6667 12 10.6667H14.6667C15.403 10.6667 16 11.2636 16 12V14.6667C16 15.403 15.403 16 14.6667 16H12C11.2636 16 10.6667 15.403 10.6667 14.6667V12Z" fill="#030A26" fill-opacity="0.65"/>
</svg>
