<svg width="20" height="20" viewBox="0 0 20 20" fill="none" xmlns="http://www.w3.org/2000/svg">
<path fill-rule="evenodd" clip-rule="evenodd" d="M4.70879 16.13C4.78536 16.0983 4.854 16.0297 4.99128 15.8924L9.99995 10.8837L15.0086 15.8924C15.1459 16.0296 15.2145 16.0983 15.2911 16.13C15.3932 16.1723 15.5079 16.1723 15.61 16.13C15.6865 16.0983 15.7552 16.0296 15.8925 15.8924C16.0297 15.7551 16.0984 15.6864 16.1301 15.6099C16.1724 15.5078 16.1724 15.3931 16.1301 15.291C16.0984 15.2144 16.0297 15.1458 15.8925 15.0085L10.8838 9.99983L15.8925 4.99115C16.0298 4.85387 16.0984 4.78523 16.1301 4.70866C16.1724 4.60657 16.1724 4.49185 16.1301 4.38976C16.0984 4.31319 16.0298 4.24455 15.8925 4.10727C15.7552 3.96999 15.6866 3.90135 15.61 3.86963C15.5079 3.82734 15.3932 3.82734 15.2911 3.86963C15.2145 3.90135 15.1459 3.96999 15.0086 4.10727L9.99995 9.11595L4.99124 4.10724C4.85396 3.96996 4.78532 3.90132 4.70875 3.86961C4.60665 3.82732 4.49194 3.82732 4.38984 3.86961C4.31328 3.90132 4.24464 3.96996 4.10736 4.10724L4.10735 4.10724C3.97008 4.24452 3.90144 4.31316 3.86972 4.38973C3.82743 4.49183 3.82743 4.60654 3.86972 4.70864C3.90144 4.78521 3.97008 4.85385 4.10736 4.99113L9.11606 9.99983L4.1074 15.0085C3.97012 15.1458 3.90148 15.2144 3.86976 15.291C3.82747 15.3931 3.82747 15.5078 3.86976 15.6099C3.90148 15.6865 3.97012 15.7551 4.1074 15.8924C4.24468 16.0297 4.31332 16.0983 4.38989 16.13C4.49198 16.1723 4.6067 16.1723 4.70879 16.13Z" fill="#00010A" fill-opacity="0.93" style="fill:#00010A;fill:color(display-p3 0.0000 0.0039 0.0392);fill-opacity:0.93;"/>
</svg>
