<svg width="20" height="20" viewBox="0 0 20 20" fill="none" xmlns="http://www.w3.org/2000/svg">
<path fill-rule="evenodd" clip-rule="evenodd" d="M8.75 3.33333C8.75 4.02368 9.30964 4.58333 10 4.58333C10.6904 4.58333 11.25 4.02368 11.25 3.33333C11.25 2.64297 10.6904 2.08333 10 2.08333C9.30964 2.08333 8.75 2.64297 8.75 3.33333ZM10 11.25C9.30964 11.25 8.75 10.6904 8.75 9.99999C8.75 9.30964 9.30964 8.74999 10 8.74999C10.6904 8.74999 11.25 9.30964 11.25 9.99999C11.25 10.6904 10.6904 11.25 10 11.25ZM10 17.9167C9.30964 17.9167 8.75 17.357 8.75 16.6667C8.75 15.9763 9.30964 15.4167 10 15.4167C10.6904 15.4167 11.25 15.9763 11.25 16.6667C11.25 17.357 10.6904 17.9167 10 17.9167Z" fill="black" fill-opacity="0.9"/>
</svg>
