<svg width="16" height="16" viewBox="0 0 16 16" fill="none" xmlns="http://www.w3.org/2000/svg">
<path d="M2.33374 14C2.21888 14 2.11732 13.9419 2.05737 13.8535C2.03315 13.8178 2.01548 13.7772 2.00659 13.7334C2.00224 13.712 1.99978 13.6897 1.99976 13.667L1.99976 9.33301C1.99992 9.14905 2.14975 9 2.33374 9L2.66675 9C2.85074 9 2.99959 9.14905 2.99976 9.33301L2.99976 12.2002L6.32983 8.87012C6.46001 8.74001 6.67136 8.73997 6.80151 8.87012L7.03687 9.10547C7.16702 9.23562 7.16697 9.44697 7.03687 9.57715L3.61401 13L6.66675 13C6.85073 13 6.99958 13.1491 6.99976 13.333L6.99976 13.667C6.99958 13.8509 6.85073 14 6.66675 14L2.33374 14Z" fill="#00010A" fill-opacity="0.93" style="fill:#00010A;fill:color(display-p3 0.0000 0.0039 0.0392);fill-opacity:0.93;"/>
<path d="M13.6675 2C13.7823 2 13.8839 2.05808 13.9438 2.14648C13.9681 2.1822 13.9857 2.22282 13.9946 2.2666C13.999 2.28804 14.0014 2.31028 14.0015 2.33301L14.0015 6.66699C14.0013 6.85095 13.8515 7 13.6675 7L13.3345 7C13.1505 7 13.0016 6.85095 13.0015 6.66699L13.0015 3.7998L9.67139 7.12988C9.54121 7.25999 9.32986 7.26003 9.19971 7.12988L8.96436 6.89453C8.83421 6.76438 8.83425 6.55303 8.96436 6.42285L12.3872 3L9.33447 3C9.15049 3 9.00164 2.85094 9.00146 2.66699L9.00146 2.33301C9.00164 2.14906 9.15049 2 9.33447 2L13.6675 2Z" fill="#00010A" fill-opacity="0.93" style="fill:#00010A;fill:color(display-p3 0.0000 0.0039 0.0392);fill-opacity:0.93;"/>
</svg>
