<svg width="28" height="28" viewBox="0 0 28 28" fill="none" xmlns="http://www.w3.org/2000/svg">
<path d="M13.9995 27.9999C21.7315 27.9999 27.9995 21.7319 27.9995 13.9999C27.9995 6.26789 21.7315 -0.00012207 13.9995 -0.00012207C6.26753 -0.00012207 -0.000488281 6.26789 -0.000488281 13.9999C-0.000488281 21.7319 6.26753 27.9999 13.9995 27.9999ZM8.5521 9.16429C8.68633 8.90086 8.9005 8.68669 9.16393 8.55247C9.4634 8.39988 9.85544 8.39988 10.6395 8.39988H17.3595C18.1436 8.39988 18.5356 8.39988 18.8351 8.55247C19.0985 8.68669 19.3127 8.90086 19.4469 9.16429C19.5995 9.46377 19.5995 9.8558 19.5995 10.6399V17.3599C19.5995 18.144 19.5995 18.536 19.4469 18.8355C19.3127 19.0989 19.0985 19.3131 18.8351 19.4473C18.5356 19.5999 18.1436 19.5999 17.3595 19.5999H10.6395C9.85544 19.5999 9.4634 19.5999 9.16393 19.4473C8.9005 19.3131 8.68633 19.0989 8.5521 18.8355C8.39951 18.536 8.39951 18.144 8.39951 17.3599V10.6399C8.39951 9.8558 8.39951 9.46377 8.5521 9.16429Z" fill="#366EF4" style="fill:#366EF4;fill:color(display-p3 0.2118 0.4314 0.9569);fill-opacity:1;"/>
</svg>
