<svg width="20" height="20" viewBox="0 0 20 20" fill="none" xmlns="http://www.w3.org/2000/svg">
<path d="M4.33317 4.58333C3.84583 4.58333 3.55551 4.5843 3.3403 4.60188C3.20895 4.61262 3.15374 4.62678 3.13894 4.63137C3.06454 4.67057 3.00374 4.73137 2.96454 4.80577C2.95995 4.82056 2.94579 4.87577 2.93506 5.00712C2.91748 5.22233 2.9165 5.51266 2.9165 5.99999V12.0156L5.3619 9.21959L5.83221 8.68186L6.30268 9.21945L8.08779 11.2593L11.8131 7.38784L12.2682 6.91487L12.7183 7.3926L17.0832 12.0251V6C17.0832 5.51266 17.0822 5.22233 17.0646 5.00712C17.0539 4.87578 17.0397 4.82057 17.0351 4.80577C16.9959 4.73137 16.9351 4.67057 16.8607 4.63137C16.8459 4.62678 16.7907 4.61262 16.6594 4.60188C16.4442 4.5843 16.1538 4.58333 15.6665 4.58333H4.33317ZM2.9165 13.9005V14C2.9165 14.4873 2.91748 14.7777 2.93506 14.9929C2.94579 15.1242 2.95995 15.1794 2.96454 15.1942C3.00374 15.2686 3.06454 15.3294 3.13894 15.3686C3.15374 15.3732 3.20895 15.3874 3.3403 15.3981C3.55551 15.4157 3.84583 15.4167 4.33317 15.4167H15.6665C16.1538 15.4167 16.4442 15.4157 16.6594 15.3981C16.7907 15.3874 16.8459 15.3732 16.8607 15.3686C16.9351 15.3294 16.9959 15.2686 17.0351 15.1942C17.0397 15.1794 17.0539 15.1242 17.0646 14.9929C17.0822 14.7777 17.0832 14.4873 17.0832 14V13.8158L16.3021 13.0187L16.2978 13.0143L16.2936 13.0099L12.2587 8.72754L8.51632 12.6167L8.04412 13.1074L7.59563 12.5949L5.83249 10.5802L3.74446 12.9676L3.74145 12.9711L3.74144 12.971L2.9165 13.9005ZM16.865 4.63287L16.8625 4.63195C16.8643 4.63253 16.8651 4.63286 16.865 4.63287ZM17.0336 4.80145C17.0336 4.8014 17.034 4.80219 17.0346 4.80396L17.0336 4.80145ZM17.0336 15.1985L17.0346 15.196C17.034 15.1978 17.0336 15.1986 17.0336 15.1985ZM16.865 15.3671C16.8651 15.3671 16.8643 15.3674 16.8626 15.368L16.865 15.3671ZM3.13463 15.3671L3.13716 15.3681C3.13538 15.3675 3.13458 15.3671 3.13463 15.3671ZM2.96605 15.1985C2.96603 15.1986 2.9657 15.1978 2.96511 15.196L2.96605 15.1985ZM2.96605 4.80145L2.96511 4.80398C2.9657 4.8022 2.96603 4.8014 2.96605 4.80145ZM3.13463 4.63287C3.13458 4.63286 3.13537 4.63253 3.13715 4.63194L3.13463 4.63287ZM1.6665 5.99999C1.6665 5.06657 1.6665 4.59986 1.84816 4.24334C2.00795 3.92974 2.26292 3.67477 2.57652 3.51498C2.93304 3.33333 3.39975 3.33333 4.33317 3.33333H15.6665C16.5999 3.33333 17.0666 3.33333 17.4232 3.51498C17.7368 3.67477 17.9917 3.92974 18.1515 4.24334C18.3332 4.59986 18.3332 5.06657 18.3332 6V14C18.3332 14.9334 18.3332 15.4001 18.1515 15.7566C17.9917 16.0703 17.7368 16.3252 17.4232 16.485C17.0666 16.6667 16.5999 16.6667 15.6665 16.6667H4.33317C3.39975 16.6667 2.93304 16.6667 2.57652 16.485C2.26292 16.3252 2.00795 16.0703 1.84816 15.7566C1.6665 15.4001 1.6665 14.9334 1.6665 14V5.99999Z" fill="black" fill-opacity="0.9"/>
</svg>
