<svg width="20" height="20" viewBox="0 0 20 20" fill="none" xmlns="http://www.w3.org/2000/svg">
<path d="M10 2.5C11.453 2.5 12.8095 2.91319 13.9584 3.62847V5.16306C12.8805 4.27994 11.5022 3.75 10 3.75C6.54822 3.75 3.75 6.54822 3.75 10C3.75 13.4518 6.54822 16.25 10 16.25C11.5022 16.25 12.8805 15.7201 13.9584 14.8369V16.3715C12.8095 17.0868 11.453 17.5 10 17.5C5.85786 17.5 2.5 14.1421 2.5 10C2.5 5.85786 5.85787 2.5 10 2.5ZM17.9682 10.4083C18.0776 10.2988 18.1059 10.2477 18.1245 10.1863C18.1431 10.1249 18.1431 10.0621 18.1245 10.0007C18.1059 9.93929 18.0776 9.8882 17.9682 9.77876L15.6447 7.45526C15.5433 7.35387 15.4908 7.32424 15.4294 7.30563C15.368 7.28701 15.3052 7.28701 15.2438 7.30563C15.1824 7.32424 15.13 7.35387 15.0286 7.45526L14.9081 7.57576C14.8067 7.67715 14.7771 7.72958 14.7585 7.79099C14.7398 7.8524 14.7398 7.9152 14.7585 7.97661C14.7771 8.03802 14.8067 8.09044 14.9081 8.19183L16.2892 9.57222L11.4584 9.57267C11.315 9.57267 11.257 9.58879 11.2004 9.61905C11.1438 9.64931 11.0994 9.69372 11.0691 9.7503C11.0389 9.80689 11.0227 9.86491 11.0227 10.0083V10.1787C11.0227 10.3221 11.0389 10.3801 11.0691 10.4367C11.0994 10.4933 11.1438 10.5377 11.2004 10.568C11.257 10.5982 11.315 10.6143 11.4584 10.6143L16.2905 10.6139L14.9081 11.9952C14.8067 12.0966 14.7771 12.149 14.7585 12.2104C14.7398 12.2718 14.7398 12.3346 14.7585 12.396C14.7771 12.4574 14.8067 12.5099 14.9081 12.6112L15.0286 12.7318C15.13 12.8331 15.1824 12.8628 15.2438 12.8814C15.3052 12.9 15.368 12.9 15.4294 12.8814C15.4908 12.8628 15.5433 12.8331 15.6447 12.7318L17.9682 10.4083Z" fill="#00010A" fill-opacity="0.93"/>
</svg>
