<svg width="20" height="20" viewBox="0 0 20 20" fill="none" xmlns="http://www.w3.org/2000/svg">
<path fill-rule="evenodd" clip-rule="evenodd" d="M6.30513 7.28513L9.37516 3.75456V16.2454L6.30512 12.7149C6.18642 12.5784 6.0144 12.5 5.8335 12.5H4.37516C4.07316 12.5 3.88424 12.4995 3.7419 12.4879C3.60685 12.4769 3.56962 12.459 3.561 12.4546C3.4826 12.4147 3.41886 12.3509 3.37891 12.2725C3.37452 12.2639 3.35665 12.2267 3.34561 12.0916C3.33398 11.9493 3.3335 11.7604 3.3335 11.4584V8.54169C3.3335 8.23968 3.33398 8.05077 3.34561 7.90842C3.35665 7.77337 3.37452 7.73615 3.37891 7.72753C3.41886 7.64913 3.4826 7.58539 3.561 7.54544C3.56962 7.54105 3.60685 7.52317 3.7419 7.51214C3.88424 7.50051 4.07316 7.50002 4.37516 7.50002H5.8335C6.0144 7.50002 6.18643 7.42164 6.30513 7.28513ZM10.4141 2.08607C10.2312 1.88077 9.95876 1.7789 9.68603 1.81381C9.42594 1.8471 9.25413 2.01332 9.19466 2.07086L9.19411 2.07139C9.11914 2.14392 9.03557 2.24007 8.95691 2.33057L8.94367 2.34581L5.54873 6.25002H4.37516L4.35202 6.25002C4.08014 6.25001 3.83952 6.25 3.64011 6.26629C3.42775 6.28364 3.20772 6.32254 2.99351 6.43168C2.67991 6.59147 2.42494 6.84644 2.26515 7.16004C2.15601 7.37425 2.11712 7.59428 2.09977 7.80663C2.08347 8.00604 2.08348 8.24665 2.0835 8.51851V8.51854V8.54169V11.4584V11.4815V11.4815C2.08348 11.7534 2.08347 11.994 2.09977 12.1934C2.11712 12.4058 2.15601 12.6258 2.26515 12.84C2.42494 13.1536 2.67991 13.4086 2.99351 13.5684C3.20772 13.6775 3.42775 13.7164 3.64011 13.7338C3.83952 13.7501 4.08013 13.75 4.352 13.75H4.37516H5.54873L8.94367 17.6542L8.95691 17.6694L8.95693 17.6694C9.03559 17.7599 9.11915 17.8561 9.19411 17.9286L9.19466 17.9291C9.25413 17.9866 9.42595 18.1529 9.68604 18.1862C9.95877 18.2211 10.2312 18.1192 10.4141 17.9139C10.5885 17.7181 10.6091 17.4799 10.6162 17.3975L10.6162 17.3967C10.6252 17.2928 10.6252 17.1654 10.6252 17.0456V17.0455L10.6252 17.0253V2.97464L10.6252 2.95444V2.95442C10.6252 2.83452 10.6252 2.70715 10.6162 2.60323L10.6162 2.60247C10.6091 2.52003 10.5885 2.28185 10.4141 2.08607ZM18.3334 9.99996C18.3334 12.5132 17.2208 14.7666 15.4613 16.2945L14.5748 15.408C16.1093 14.1087 17.0834 12.1681 17.0834 9.99996C17.0834 7.83185 16.1093 5.89125 14.5749 4.59193L15.4614 3.70546C17.2208 5.23335 18.3334 7.48673 18.3334 9.99996ZM15 10C15 11.593 14.2551 13.012 13.0945 13.9277L12.2023 13.0355C13.1403 12.3539 13.75 11.2482 13.75 10C13.75 8.75185 13.1403 7.64612 12.2023 6.96447L13.0945 6.07233C14.2551 6.98796 15 8.40698 15 10Z" fill="black" fill-opacity="0.9"/>
</svg>
