<svg width="32" height="32" viewBox="0 0 32 32" fill="none" xmlns="http://www.w3.org/2000/svg">
<path fill-rule="evenodd" clip-rule="evenodd" d="M18.0832 11V15.1667C18.0832 16.3172 17.1504 17.25 15.9998 17.25C14.8492 17.25 13.9165 16.3172 13.9165 15.1667V11C13.9165 9.8494 14.8492 8.91666 15.9998 8.91666C17.1504 8.91666 18.0832 9.8494 18.0832 11ZM12.6665 11C12.6665 9.15904 14.1589 7.66666 15.9998 7.66666C17.8408 7.66666 19.3332 9.15904 19.3332 11V15.1667C19.3332 17.0076 17.8408 18.5 15.9998 18.5C14.1589 18.5 12.6665 17.0076 12.6665 15.1667V11ZM10.7915 14.75C10.7915 14.5199 10.605 14.3333 10.3748 14.3333H9.95817C9.72805 14.3333 9.5415 14.5199 9.5415 14.75V15.1667C9.5415 18.5226 12.1013 21.2808 15.3748 21.5951V22.6667H13.0276C12.8282 22.6667 12.6665 22.8283 12.6665 23.0278V23.5555C12.6665 23.755 12.8282 23.9167 13.0276 23.9167H18.9721C19.1715 23.9167 19.3332 23.755 19.3332 23.5555V23.0278C19.3332 22.8283 19.1715 22.6667 18.9721 22.6667H16.6248V21.5951C19.8984 21.2808 22.4582 18.5226 22.4582 15.1667V14.75C22.4582 14.5199 22.2716 14.3333 22.0415 14.3333H21.6248C21.3947 14.3333 21.2082 14.5199 21.2082 14.75V15.1667C21.2082 18.0431 18.8763 20.375 15.9998 20.375C13.1234 20.375 10.7915 18.0431 10.7915 15.1667V14.75Z" fill="#00010A" fill-opacity="0.93"/>
</svg>
