<svg width="20" height="20" viewBox="0 0 20 20" fill="none" xmlns="http://www.w3.org/2000/svg">
<path fill-rule="evenodd" clip-rule="evenodd" d="M15.8333 2.70837C15.8333 2.51423 15.8333 2.41716 15.8651 2.34059C15.9073 2.23849 15.9885 2.15738 16.0905 2.11509C16.1671 2.08337 16.2642 2.08337 16.4583 2.08337C16.6525 2.08337 16.7495 2.08337 16.8261 2.11509C16.9282 2.15738 17.0093 2.23849 17.0516 2.34059C17.0833 2.41716 17.0833 2.51423 17.0833 2.70837L17.0833 7.50004L16.25 7.50004L15.8333 7.50004L12.7083 7.50004C12.5142 7.50004 12.4171 7.50004 12.3405 7.46833C12.2385 7.42604 12.1573 7.34492 12.1151 7.24283C12.0833 7.16626 12.0833 7.06918 12.0833 6.87504C12.0833 6.6809 12.0833 6.58383 12.1151 6.50726C12.1573 6.40516 12.2385 6.32405 12.3405 6.28176C12.4171 6.25004 12.5142 6.25004 12.7083 6.25004L15.0005 6.25004C13.8602 4.73198 12.0448 3.75004 10 3.75004C6.54822 3.75004 3.75 6.54826 3.75 10C3.75 13.4518 6.54822 16.25 10 16.25C12.8746 16.25 15.2959 14.3094 16.0253 11.6667L17.3142 11.6667C16.5563 15.0067 13.5693 17.5 10 17.5C5.85787 17.5 2.5 14.1422 2.5 10C2.5 5.85791 5.85786 2.50004 10 2.50004C12.3561 2.50004 14.4584 3.58643 15.8333 5.2856L15.8333 2.70837Z" fill="black" fill-opacity="0.6" style="fill:black;fill-opacity:0.6;"/>
</svg>
