<svg width="20" height="20" viewBox="0 0 20 20" fill="none" xmlns="http://www.w3.org/2000/svg">
<path d="M15.4165 9.16667C15.4165 5.71489 12.6183 2.91667 9.1665 2.91667C5.71472 2.91667 2.9165 5.71489 2.9165 9.16667C2.9165 12.6185 5.71472 15.4167 9.1665 15.4167C12.6183 15.4167 15.4165 12.6185 15.4165 9.16667ZM14.0095 14.8936C12.7028 15.9997 11.0126 16.6667 9.1665 16.6667C5.02437 16.6667 1.6665 13.3088 1.6665 9.16667C1.6665 5.02454 5.02437 1.66667 9.1665 1.66667C13.3086 1.66667 16.6665 5.02454 16.6665 9.16667C16.6665 11.0127 15.9995 12.703 14.8934 14.0097L18.0053 17.1216C18.1426 17.2589 18.2112 17.3275 18.2429 17.4041C18.2852 17.5062 18.2852 17.6209 18.2429 17.723C18.2112 17.7996 18.1426 17.8682 18.0053 18.0055C17.868 18.1428 17.7994 18.2114 17.7228 18.2431C17.6207 18.2854 17.506 18.2854 17.4039 18.2431C17.3273 18.2114 17.2587 18.1428 17.1214 18.0055L14.0095 14.8936Z" fill="black" fill-opacity="0.9"/>
</svg>
