<svg width="32" height="32" viewBox="0 0 32 32" fill="none" xmlns="http://www.w3.org/2000/svg">
<path d="M16.0007 27.6666C22.444 27.6666 27.6673 22.4432 27.6673 15.9999C27.6673 9.5566 22.444 4.33325 16.0007 4.33325C9.55733 4.33325 4.33398 9.5566 4.33398 15.9999C4.33398 22.4432 9.55733 27.6666 16.0007 27.6666ZM11.4611 11.9703C11.573 11.7507 11.7515 11.5723 11.971 11.4604C12.2206 11.3333 12.5473 11.3333 13.2007 11.3333H18.8006C19.454 11.3333 19.7807 11.3333 20.0303 11.4604C20.2498 11.5723 20.4283 11.7507 20.5402 11.9703C20.6673 12.2198 20.6673 12.5465 20.6673 13.1999V18.7999C20.6673 19.4533 20.6673 19.78 20.5402 20.0296C20.4283 20.2491 20.2498 20.4276 20.0303 20.5394C19.7807 20.6666 19.454 20.6666 18.8006 20.6666H13.2007C12.5473 20.6666 12.2206 20.6666 11.971 20.5394C11.7515 20.4276 11.573 20.2491 11.4611 20.0296C11.334 19.78 11.334 19.4533 11.334 18.7999V13.1999C11.334 12.5465 11.334 12.2198 11.4611 11.9703Z" fill="#4A70FF"/>
</svg>
