<svg width="20" height="20" viewBox="0 0 20 20" fill="none" xmlns="http://www.w3.org/2000/svg">
<path d="M12.5233 16.091L12.374 16.1508L12.1696 16.8836L12.0869 17.1624L12.042 17.2962L12.0006 17.4013L11.9587 17.4886L11.9122 17.5689C11.7023 17.907 11.375 18.1557 10.9931 18.2676C10.9737 18.2732 10.9546 18.2784 10.9352 18.2831L10.8144 18.3064C10.7714 18.3126 10.7247 18.3173 10.6713 18.3209L10.4876 18.3287L10.245 18.332H9.75165L9.41407 18.3255L9.25392 18.3146C9.2303 18.3122 9.20796 18.3095 9.18654 18.3064L9.06588 18.2832L9.00808 18.2677C8.62649 18.156 8.29942 17.9077 8.08933 17.5701L8.0428 17.4898L8.00083 17.4026L7.95938 17.2976L7.91441 17.1639L7.83152 16.8855L7.62589 16.1511C7.57556 16.1318 7.52567 16.1118 7.47621 16.0913L7.32913 16.0282L6.61931 16.4278L6.42492 16.5327L6.30433 16.5933C6.19198 16.6468 6.09899 16.6814 5.9993 16.7047C5.61182 16.7952 5.2046 16.7396 4.85572 16.5487C4.83867 16.5394 4.82214 16.5299 4.80583 16.5201L4.70819 16.4548L4.60142 16.3687L4.47112 16.2501L4.30291 16.087L4.00883 15.7938L3.71988 15.497L3.6255 15.3921L3.55442 15.3045L3.49908 15.2251L3.45192 15.1451C3.26106 14.7963 3.20537 14.3894 3.29551 14.0022C3.2991 13.9868 3.30281 13.9718 3.30676 13.9569L3.33407 13.8677L3.37186 13.7717L3.42505 13.6581L3.54444 13.4317L3.97122 12.6712C3.9277 12.5729 3.88666 12.474 3.84814 12.3743L3.11495 12.1698L2.83622 12.0871L2.70234 12.0422L2.59723 12.0008L2.50997 11.9588L2.42959 11.9123C2.09156 11.7024 1.84285 11.3752 1.73102 10.9932C1.72535 10.9738 1.72018 10.9547 1.71546 10.9354L1.69219 10.8145C1.68601 10.7715 1.68129 10.7248 1.67767 10.6714L1.6698 10.4877L1.6665 10.2452V9.7518L1.67303 9.41425L1.68395 9.25408C1.68635 9.23046 1.68908 9.20812 1.69216 9.18669L1.7154 9.06604L1.73094 9.00828C1.84259 8.62667 2.09091 8.29959 2.42846 8.08952C2.4419 8.08116 2.45515 8.07316 2.46847 8.06543L2.55086 8.02168C2.56531 8.01471 2.58028 8.00785 2.59599 8.00101L2.70095 7.95955L2.83465 7.91457L3.11308 7.83169L3.84753 7.62609L3.9073 7.47676L3.97065 7.32909L3.72587 6.89581L3.54387 6.57021L3.42419 6.34367L3.37084 6.23001C3.36337 6.21282 3.35654 6.19636 3.35026 6.18041L3.3182 6.08904L3.29421 5.99929C3.20373 5.61184 3.25927 5.20463 3.45023 4.85557C3.45783 4.84168 3.46545 4.82819 3.47326 4.81491L3.52357 4.73628L3.58586 4.6538C3.59766 4.63924 3.61028 4.62415 3.62387 4.60834L3.77667 4.44172L4.37099 3.84508L4.55703 3.66924L4.6944 3.55437L4.77376 3.49906L4.85374 3.45193C5.20251 3.26103 5.6094 3.20534 5.99664 3.29549C6.01204 3.29907 6.02708 3.30279 6.04196 3.30674L6.13115 3.33406L6.22725 3.37188L6.34087 3.42509L6.48259 3.49859L7.32756 3.97106L7.47544 3.90783L7.62474 3.84804L7.82922 3.11499L7.93506 2.76504L7.99822 2.59733L8.04015 2.51006L8.08665 2.42963C8.29664 2.09167 8.62386 1.843 9.00572 1.73121C9.10252 1.70286 9.19391 1.68688 9.32753 1.67784L9.5112 1.66997L9.75372 1.66667H10.2471L10.5847 1.67319L10.7449 1.68411C10.8394 1.69373 10.9133 1.70847 10.9907 1.7311C11.3723 1.84277 11.6995 2.09113 11.9094 2.42858L11.9596 2.51584L12.0048 2.61221L12.0502 2.73159L12.1009 2.88787L12.162 3.09494L12.3728 3.84755C12.4729 3.88618 12.5719 3.92723 12.6697 3.9706L13.1029 3.72586L13.5739 3.46605L13.6945 3.40549C13.8069 3.35198 13.9 3.31743 13.9995 3.29418C14.3869 3.20369 14.7942 3.25925 15.1431 3.45016L15.2232 3.49731L15.3026 3.55266L15.4401 3.66761L15.557 3.77658L16.1665 4.38415L16.3502 4.58017L16.4328 4.67927L16.4951 4.76656L16.5467 4.8536C16.7378 5.20242 16.7935 5.60937 16.7033 5.99648C16.6802 6.09602 16.6457 6.18906 16.5863 6.31381L16.4982 6.48603L16.0276 7.32761L16.091 7.47528L16.1507 7.62444L16.9892 7.85931L17.234 7.93486L17.3521 7.9775C17.3695 7.98437 17.3859 7.99118 17.4017 7.99801L17.4889 8.03994L17.5693 8.08643C17.9073 8.29642 18.156 8.62364 18.2679 9.00588C18.2951 9.099 18.311 9.18524 18.3203 9.31278L18.3285 9.48873L18.3321 9.72282L18.331 10.3898L18.3261 10.5808L18.3171 10.7263C18.3152 10.7476 18.313 10.7676 18.3106 10.7867L18.2929 10.8924L18.2678 10.9905C18.1562 11.3721 17.9078 11.6992 17.5705 11.9091C17.5571 11.9174 17.5438 11.9254 17.5305 11.9332L17.448 11.977C17.4336 11.984 17.4186 11.9908 17.4029 11.9977L17.2979 12.0392L17.1641 12.0842L16.8856 12.1671L16.1509 12.3719L16.0912 12.5229L16.0281 12.6702L16.4547 13.4288L16.5744 13.6553L16.6277 13.7689C16.6351 13.7861 16.642 13.8025 16.6482 13.8185L16.6803 13.9098L16.7042 13.9995C16.7946 14.3869 16.7391 14.794 16.548 15.1435C16.5398 15.1585 16.5315 15.1731 16.523 15.1874L16.4677 15.2727L16.3971 15.3637L16.3018 15.4719L15.9984 15.7848L15.6274 16.1537L15.4413 16.3295L15.304 16.4444L15.2246 16.4997L15.1446 16.5468C14.7959 16.7377 14.3891 16.7934 14.0015 16.7032L13.9044 16.677C13.8883 16.6719 13.8721 16.6665 13.8555 16.6605L13.7489 16.617L13.6192 16.5543L13.4529 16.4662L12.671 16.0277L12.5233 16.091ZM10.3419 2.91753H9.65758L9.41625 2.92409L9.35695 2.93084C9.2703 2.95621 9.19604 3.01264 9.14839 3.08935L9.11089 3.1896L9.06465 3.34244L8.66088 4.78781L7.9544 5.06243L7.26091 5.36849L6.27893 4.8149L5.84908 4.57728L5.72266 4.51581L5.64677 4.50376C5.58002 4.50071 5.51324 4.51595 5.45386 4.54845L5.43386 4.56262L5.3021 4.68345L4.71557 5.26884L4.57959 5.41344L4.54686 5.45548C4.50353 5.53469 4.49092 5.6271 4.51146 5.71504L4.54006 5.78134L4.63121 5.95322L5.36812 7.26144L5.11327 7.83597C5.07813 7.91518 5.04491 7.99529 5.01366 8.07626L4.78772 8.66153L3.70248 8.96429L3.34175 9.06688L3.15597 9.12408L3.08894 9.15078C3.01234 9.19845 2.95599 9.27267 2.93065 9.35928L2.92391 9.41832L2.91736 9.65703V10.3414L2.92392 10.5827L2.93068 10.642C2.95604 10.7287 3.01244 10.8029 3.08933 10.8506L3.11153 10.8611L3.23103 10.9011L4.78788 11.3381L5.01416 11.9238C5.04532 12.0045 5.07855 12.0846 5.11374 12.1639L5.36853 12.7378L4.81494 13.7199L4.55719 14.1883L4.51583 14.2762L4.50378 14.3521C4.50073 14.4188 4.51596 14.4856 4.54842 14.5449L4.57571 14.5807L4.68337 14.6966L5.23536 15.2507L5.40818 15.4145L5.45556 15.452C5.53475 15.4954 5.62715 15.508 5.72118 15.4854L5.85367 15.4209L5.95713 15.3654L7.26146 14.6307L7.83616 14.8857C7.91468 14.9205 7.99473 14.9537 8.07609 14.9851L8.66142 15.211L9.06672 16.6569L9.12392 16.8426L9.15061 16.9097C9.19828 16.9863 9.27251 17.0426 9.35895 17.0679L9.418 17.0746L9.65682 17.0812H10.3412L10.5826 17.0746L10.6419 17.0679C10.7285 17.0425 10.8027 16.9861 10.8505 16.9092L10.8609 16.887L10.9009 16.7675L11.3379 15.211L12.0444 14.9364L12.7378 14.6305L13.7195 15.1839L14.1493 15.4214L14.2756 15.4829L14.3516 15.495C14.4184 15.498 14.4852 15.4828 14.5446 15.4502L14.5646 15.4361L14.6265 15.3815L14.9277 15.0879L15.3827 14.6253L15.4462 14.5517L15.4782 14.4817C15.4991 14.4181 15.5023 14.3496 15.4869 14.2835L15.4702 14.2418L15.3672 14.0456L14.6306 12.7379L14.8855 12.163C14.9204 12.0845 14.9537 12.0042 14.9853 11.9224L15.2112 11.3372L16.4059 11.0038L16.8428 10.8747L16.9099 10.8479C16.9864 10.8003 17.0428 10.7261 17.0682 10.6393L17.0703 10.6297L17.081 10.3737L17.0828 9.86964L17.0744 9.40699L17.0682 9.35673C17.0428 9.27012 16.9864 9.19585 16.9096 9.14816C16.9074 9.14679 16.9045 9.14527 16.9009 9.14354L16.7679 9.09771L15.2109 8.6606L15.0978 8.36767L14.9364 7.95436L14.6304 7.2608L15.3629 5.95782L15.4835 5.71994L15.495 5.64671C15.4981 5.58 15.4828 5.51325 15.4503 5.4538L15.4361 5.4338L15.3518 5.34027L14.7827 4.76706L14.5661 4.56328L14.5432 4.54681C14.4641 4.5035 14.3717 4.4909 14.2775 4.51352L14.0416 4.63341L12.7374 5.36807L12.1629 5.11324C12.0838 5.07816 12.0036 5.04493 11.9227 5.01366L11.3373 4.7877L10.9529 3.41355L10.8659 3.13046L10.8481 3.08903C10.8005 3.01249 10.7263 2.95615 10.6397 2.93082L10.5807 2.92408L10.3419 2.91753ZM11.6665 10C11.6665 9.07953 10.9203 8.33334 9.99984 8.33334C9.07936 8.33334 8.33317 9.07953 8.33317 10C8.33317 10.9205 9.07936 11.6667 9.99984 11.6667C10.9203 11.6667 11.6665 10.9205 11.6665 10ZM12.9165 10C12.9165 11.6108 11.6107 12.9167 9.99984 12.9167C8.38901 12.9167 7.08317 11.6108 7.08317 10C7.08317 8.38917 8.38901 7.08334 9.99984 7.08334C11.6107 7.08334 12.9165 8.38917 12.9165 10Z" fill="black" fill-opacity="0.9"/>
</svg>
