<svg width="20" height="20" viewBox="0 0 20 20" fill="none" xmlns="http://www.w3.org/2000/svg">
<path d="M11.25 8.12364L9.42717 8.12364C5.86771 8.12364 2.93529 10.8083 2.54428 14.2632C4.36649 12.734 6.68579 11.8736 9.1091 11.8736L11.25 11.8736L11.25 15.8731L17.543 9.99877L11.25 4.12611L11.25 8.12364ZM2.5 16.0327C2.49023 16.0434 2.48048 16.0541 2.47076 16.0648C2.40475 16.1376 2.33984 16.2115 2.27606 16.2867C2.1994 16.3771 2.12436 16.4691 2.05101 16.5629C1.78848 16.8984 1.25 16.7127 1.25 16.2867L1.25 15.0508C1.25 10.5347 4.91105 6.87364 9.42717 6.87364L10 6.87364L10 3.93782C10 2.91643 11.2184 2.38691 11.9652 3.08376L18.46 9.14471C18.9548 9.6065 18.9548 10.3908 18.4601 10.8527L11.9653 16.9153C11.2186 17.6124 10 17.0829 10 16.0614L10 13.1236L9.1091 13.1236C8.98909 13.1236 8.86937 13.126 8.75 13.1308C6.35915 13.2265 4.10977 14.2747 2.5 16.0327Z" fill="black" fill-opacity="0.6" style="fill:black;fill-opacity:0.6;"/>
</svg>
