<svg width="20" height="20" viewBox="0 0 20 20" fill="none" xmlns="http://www.w3.org/2000/svg">
<path d="M4.19822 6.09054C4.1665 6.16711 4.1665 6.26419 4.1665 6.45833C4.1665 6.65247 4.1665 6.74954 4.19822 6.82611C4.24051 6.92821 4.32162 7.00932 4.42372 7.05161C4.50029 7.08333 4.59736 7.08333 4.7915 7.08333H6.0415C6.23565 7.08333 6.33272 7.08333 6.40929 7.05161C6.51138 7.00932 6.5925 6.92821 6.63479 6.82611C6.6665 6.74954 6.6665 6.65247 6.6665 6.45833C6.6665 6.26419 6.6665 6.16711 6.63479 6.09054C6.5925 5.98845 6.51138 5.90733 6.40929 5.86505C6.33272 5.83333 6.23565 5.83333 6.0415 5.83333H4.7915C4.59736 5.83333 4.50029 5.83333 4.42372 5.86505C4.32162 5.90733 4.24051 5.98845 4.19822 6.09054Z" fill="black" fill-opacity="0.9"/>
<path d="M4.1665 8.95833C4.1665 8.76419 4.1665 8.66711 4.19822 8.59054C4.24051 8.48845 4.32162 8.40733 4.42372 8.36504C4.50029 8.33333 4.59736 8.33333 4.7915 8.33333H6.0415C6.23565 8.33333 6.33272 8.33333 6.40929 8.36504C6.51138 8.40733 6.5925 8.48845 6.63479 8.59054C6.6665 8.66711 6.6665 8.76419 6.6665 8.95833C6.6665 9.15247 6.6665 9.24954 6.63479 9.32611C6.5925 9.42821 6.51138 9.50932 6.40929 9.55161C6.33272 9.58333 6.23565 9.58333 6.0415 9.58333H4.7915C4.59736 9.58333 4.50029 9.58333 4.42372 9.55161C4.32162 9.50932 4.24051 9.42821 4.19822 9.32611C4.1665 9.24954 4.1665 9.15247 4.1665 8.95833Z" fill="black" fill-opacity="0.9"/>
<path d="M4.19822 11.0905C4.1665 11.1671 4.1665 11.2642 4.1665 11.4583C4.1665 11.6525 4.1665 11.7495 4.19822 11.8261C4.24051 11.9282 4.32162 12.0093 4.42372 12.0516C4.50029 12.0833 4.59736 12.0833 4.7915 12.0833H6.0415C6.23565 12.0833 6.33272 12.0833 6.40929 12.0516C6.51138 12.0093 6.5925 11.9282 6.63479 11.8261C6.6665 11.7495 6.6665 11.6525 6.6665 11.4583C6.6665 11.2642 6.6665 11.1671 6.63479 11.0905C6.5925 10.9884 6.51138 10.9073 6.40929 10.865C6.33272 10.8333 6.23565 10.8333 6.0415 10.8333H4.7915C4.59736 10.8333 4.50029 10.8333 4.42372 10.865C4.32162 10.9073 4.24051 10.9884 4.19822 11.0905Z" fill="black" fill-opacity="0.9"/>
<path fill-rule="evenodd" clip-rule="evenodd" d="M2.57652 3.51498C2.26292 3.67477 2.00795 3.92974 1.84816 4.24334C1.6665 4.59986 1.6665 5.06657 1.6665 5.99999V14C1.6665 14.9334 1.6665 15.4001 1.84816 15.7566C2.00795 16.0702 2.26292 16.3252 2.57652 16.485C2.93304 16.6667 3.39975 16.6667 4.33317 16.6667H15.6665C16.5999 16.6667 17.0666 16.6667 17.4232 16.485C17.7368 16.3252 17.9917 16.0702 18.1515 15.7566C18.3332 15.4001 18.3332 14.9334 18.3332 14V5.99999C18.3332 5.06657 18.3332 4.59986 18.1515 4.24334C17.9917 3.92974 17.7368 3.67477 17.4232 3.51498C17.0666 3.33333 16.5999 3.33333 15.6665 3.33333H4.33317C3.39975 3.33333 2.93304 3.33333 2.57652 3.51498ZM15.6665 15.4167H9.1665L9.1665 4.58333H15.6665C16.1538 4.58333 16.4442 4.5843 16.6594 4.60188C16.7907 4.61262 16.8459 4.62678 16.8607 4.63137C16.9351 4.67057 16.9959 4.73137 17.0351 4.80577C17.0397 4.82057 17.0539 4.87578 17.0646 5.00712C17.0822 5.22233 17.0832 5.51266 17.0832 5.99999V14C17.0832 14.4873 17.0822 14.7777 17.0646 14.9929C17.0539 15.1242 17.0397 15.1794 17.0351 15.1942C16.9959 15.2686 16.9351 15.3294 16.8607 15.3686C16.8459 15.3732 16.7907 15.3874 16.6594 15.3981C16.4442 15.4157 16.1538 15.4167 15.6665 15.4167ZM7.9165 15.4167L7.9165 4.58333H4.33317C3.84583 4.58333 3.55551 4.5843 3.3403 4.60188C3.20895 4.61262 3.15374 4.62678 3.13894 4.63137C3.06454 4.67057 3.00374 4.73137 2.96454 4.80577C2.95995 4.82056 2.94579 4.87577 2.93506 5.00712C2.91748 5.22233 2.9165 5.51266 2.9165 5.99999V14C2.9165 14.4873 2.91748 14.7777 2.93506 14.9929C2.94579 15.1242 2.95995 15.1794 2.96454 15.1942C3.00374 15.2686 3.06454 15.3294 3.13894 15.3686C3.15374 15.3732 3.20895 15.3874 3.3403 15.3981C3.55551 15.4157 3.84583 15.4167 4.33317 15.4167H7.9165ZM3.13463 15.3671L3.13715 15.3681C3.13537 15.3675 3.13458 15.3671 3.13463 15.3671ZM2.96605 15.1985C2.96603 15.1986 2.9657 15.1978 2.96512 15.196L2.96605 15.1985ZM2.96605 4.80145L2.96511 4.80398C2.9657 4.8022 2.96603 4.8014 2.96605 4.80145ZM3.13463 4.63287C3.13458 4.63286 3.13537 4.63253 3.13715 4.63194L3.13463 4.63287ZM16.865 4.63287L16.8625 4.63194C16.8643 4.63253 16.8651 4.63285 16.865 4.63287ZM17.0336 15.1985L17.0346 15.1959L17.0341 15.1973C17.0338 15.1981 17.0336 15.1985 17.0336 15.1985ZM16.8648 15.3672C16.8648 15.3672 16.865 15.3672 16.8648 15.3672Z" fill="black" fill-opacity="0.9"/>
</svg>
