<svg width="14" height="14" viewBox="0 0 14 14" fill="none" xmlns="http://www.w3.org/2000/svg">
<path d="M7 14C6.88734 14 6.7895 13.9614 6.70648 13.8843C6.62939 13.8131 6.58196 13.7152 6.56417 13.5906C6.42778 12.6175 6.27954 11.7987 6.11944 11.1341C5.96527 10.4755 5.75773 9.93261 5.49682 9.5054C5.23592 9.07819 4.89199 8.73702 4.46506 8.48188C4.04405 8.22674 3.50445 8.02204 2.84625 7.86777C2.19399 7.70756 1.38755 7.56516 0.426938 7.44056C0.296485 7.42869 0.192715 7.38122 0.115629 7.29816C0.0385429 7.21509 0 7.11422 0 6.99555C0 6.88281 0.0385429 6.78491 0.115629 6.70184C0.192715 6.61878 0.296485 6.57131 0.426938 6.55944C1.38755 6.45264 2.19695 6.32507 2.85515 6.17673C3.51334 6.0284 4.05591 5.82369 4.48285 5.56262C4.90978 5.30155 5.25371 4.95444 5.51461 4.5213C5.77552 4.08815 5.98306 3.53931 6.13723 2.87476C6.29733 2.20428 6.43964 1.37953 6.56417 0.400509C6.58196 0.281839 6.62939 0.186904 6.70648 0.115702C6.7895 0.0385671 6.88734 0 7 0C7.11859 0 7.21643 0.0385671 7.29352 0.115702C7.37061 0.186904 7.42101 0.281839 7.44473 0.400509C7.56925 1.37953 7.7086 2.20428 7.86277 2.87476C8.02287 3.53931 8.23041 4.08815 8.48539 4.5213C8.74629 4.95444 9.09021 5.30155 9.51715 5.56262C9.94409 5.82369 10.4867 6.0284 11.1449 6.17673C11.803 6.32507 12.6154 6.45264 13.582 6.55944C13.7065 6.57131 13.8073 6.61878 13.8844 6.70184C13.9615 6.78491 14 6.88281 14 6.99555C14 7.11422 13.9615 7.21509 13.8844 7.29816C13.8073 7.38122 13.7065 7.42869 13.582 7.44056C12.6154 7.54736 11.803 7.67493 11.1449 7.82327C10.4867 7.9716 9.94409 8.17631 9.51715 8.43738C9.09021 8.69252 8.74629 9.03666 8.48539 9.4698C8.23041 9.90295 8.02287 10.4548 7.86277 11.1252C7.7086 11.7957 7.56925 12.6175 7.44473 13.5906C7.42101 13.7152 7.37061 13.8131 7.29352 13.8843C7.21643 13.9614 7.11859 14 7 14Z" fill="#4A70FF" style="fill:#4A70FF;fill:color(display-p3 0.2902 0.4392 1.0000);fill-opacity:1;"/>
</svg>
