<svg width="20" height="20" viewBox="0 0 20 20" fill="none" xmlns="http://www.w3.org/2000/svg">
<path d="M3.7192 1.10155L3.32859 2.42648C3.25358 2.68094 3.21607 2.80816 3.14661 2.91283C3.08512 3.00547 3.00572 3.08488 2.91307 3.14636C2.80841 3.21582 2.68118 3.25333 2.42672 3.32835L1.1018 3.71896C0.646597 3.85316 0.41899 3.92026 0.360879 4.02327C0.310697 4.11222 0.310697 4.22094 0.360879 4.30989C0.41899 4.41289 0.646592 4.48 1.1018 4.6142L2.42672 5.0048C2.68117 5.07982 2.80841 5.11733 2.91307 5.18679C3.00572 5.24827 3.08512 5.32768 3.14661 5.42033C3.21607 5.52499 3.25358 5.65222 3.32859 5.90667L3.7192 7.2316C3.8534 7.6868 3.9205 7.91441 4.02351 7.97252C4.11246 8.0227 4.22118 8.0227 4.31013 7.97252C4.41314 7.91441 4.48024 7.6868 4.61444 7.2316L5.00505 5.90667C5.08006 5.65222 5.11757 5.52499 5.18703 5.42033C5.24852 5.32768 5.32792 5.24827 5.42057 5.18679C5.52523 5.11733 5.65246 5.07982 5.90691 5.00481L7.23184 4.6142C7.68705 4.48 7.91465 4.41289 7.97276 4.30989C8.02294 4.22094 8.02294 4.11222 7.97276 4.02327C7.91465 3.92026 7.68705 3.85316 7.23184 3.71896L5.90692 3.32835C5.65246 3.25333 5.52523 3.21582 5.42057 3.14636C5.32792 3.08488 5.24852 3.00547 5.18703 2.91283C5.11757 2.80817 5.08006 2.68094 5.00505 2.42649L4.61444 1.10155C4.48024 0.646348 4.41314 0.418746 4.31013 0.360634C4.22118 0.310453 4.11246 0.310453 4.02351 0.360634C3.9205 0.418746 3.8534 0.64635 3.7192 1.10155Z" fill="black" fill-opacity="0.9"/>
<path fill-rule="evenodd" clip-rule="evenodd" d="M9.8743 4.08676C10.1619 3.11133 10.3057 2.62361 10.5264 2.49908C10.717 2.39155 10.95 2.39155 11.1406 2.49908C11.3613 2.62361 11.5051 3.11133 11.7927 4.08677L12.1941 5.44846C12.4942 6.46628 12.6442 6.97521 12.9221 7.39385C13.168 7.76444 13.4856 8.08206 13.8562 8.328C14.2749 8.60584 14.7838 8.75588 15.8016 9.05595L17.1633 9.45739C18.1387 9.74497 18.6265 9.88875 18.751 10.1095C18.8585 10.3001 18.8585 10.5331 18.751 10.7237C18.6265 10.9444 18.1387 11.0882 17.1633 11.3758L15.8016 11.7772C14.7838 12.0773 14.2749 12.2273 13.8562 12.5052C13.4856 12.7511 13.168 13.0687 12.9221 13.4393C12.6442 13.8579 12.4942 14.3669 12.1941 15.3847L11.7927 16.7464C11.5051 17.7218 11.3613 18.2095 11.1406 18.3341C10.95 18.4416 10.717 18.4416 10.5264 18.3341C10.3057 18.2095 10.1619 17.7218 9.8743 16.7464L9.47285 15.3847C9.17278 14.3669 9.02275 13.8579 8.74491 13.4393C8.49897 13.0687 8.18135 12.7511 7.81076 12.5052C7.39211 12.2273 6.8832 12.0773 5.86539 11.7772L4.50367 11.3758C3.52823 11.0882 3.04052 10.9444 2.91599 10.7237C2.80846 10.5331 2.80846 10.3001 2.91599 10.1095C3.04052 9.88875 3.52823 9.74497 4.50367 9.4574L5.86537 9.05595C6.88319 8.75588 7.39211 8.60584 7.81076 8.328C8.18135 8.08206 8.49897 7.76444 8.74491 7.39385C9.02275 6.9752 9.17279 6.46629 9.47286 5.44846L9.8743 4.08676ZM10.8335 5.25362L11.04 5.95452C11.2954 6.82305 11.4961 7.5058 11.8806 8.08506C12.2187 8.59461 12.6555 9.03134 13.165 9.36951C13.7443 9.75393 14.427 9.95467 15.2955 10.21L15.9964 10.4166L15.2955 10.6231C14.427 10.8785 13.7443 11.0792 13.165 11.4636C12.6555 11.8018 12.2187 12.2385 11.8806 12.7481C11.4961 13.3274 11.2954 14.0101 11.04 14.8786L10.8335 15.5795L10.6269 14.8786C10.3716 14.0101 10.1708 13.3273 9.78642 12.7481C9.44825 12.2385 9.01152 11.8018 8.50197 11.4636C7.92271 11.0792 7.23995 10.8785 6.37143 10.6231L5.67053 10.4166L6.37144 10.21C7.23996 9.95467 7.92272 9.75393 8.50197 9.36951C9.01152 9.03134 9.44825 8.59461 9.78642 8.08506C10.1708 7.50581 10.3716 6.82305 10.6269 5.95453L10.8335 5.25362Z" fill="black" fill-opacity="0.9"/>
</svg>
