<svg width="20" height="20" viewBox="0 0 20 20" fill="none" xmlns="http://www.w3.org/2000/svg">
<path d="M16.6556 9.08031L17.2238 5.78125H14.8298C14.2853 5.78125 13.8471 5.30538 13.9528 4.75919L14.1908 3.53125H10.9142L16.6556 9.08031ZM16.5459 9.71875H12.8706L11.6584 16.4688H15.3838L16.5459 9.71875ZM8.02239 16.4688L9.23289 9.71875H6.94407L4.46176 7.04294L2.83895 16.4688H8.02239ZM4.58214 6.34375H9.72564L10.2308 3.53125H5.06589L4.58214 6.34375ZM15.2511 3.97113L15.1189 4.65625H16.0009L15.2511 3.97113ZM15.2066 2.40625L18.4376 5.35938L16.3766 17.3333C16.3649 17.4056 16.328 17.4714 16.2724 17.5191C16.2168 17.5668 16.1461 17.5932 16.0729 17.5938H1.87145C1.82586 17.5931 1.78096 17.5825 1.73988 17.5628C1.69881 17.543 1.66254 17.5145 1.63362 17.4792C1.60469 17.444 1.58381 17.4029 1.57243 17.3587C1.56104 17.3146 1.55943 17.2685 1.5677 17.2236L4.07364 2.66669C4.08532 2.59448 4.12216 2.52873 4.17764 2.48107C4.23313 2.43341 4.30368 2.4069 4.37682 2.40625H15.2066ZM11.0666 5.24294L10.6656 7.46875H6.39057L7.43457 8.59375H10.5767L9.16482 16.4688H10.5148L11.929 8.59375H14.5328L11.0655 5.24294H11.0666Z" fill="black" fill-opacity="0.9"/>
</svg>
