<svg width="20" height="20" viewBox="0 0 20 20" fill="none" xmlns="http://www.w3.org/2000/svg">
<path fill-rule="evenodd" clip-rule="evenodd" d="M12.0518 14.9861C12.3449 15.8654 11.9965 16.8042 11.2606 17.2945C11.2395 17.2547 11.2173 17.2132 11.1939 17.17C10.9697 16.7554 10.6421 16.1878 10.2278 15.575C9.42796 14.3922 8.25103 12.9592 6.81132 12.1913L6.81132 4.58017L12.7167 4.58017C13.4937 4.58017 13.7032 4.59146 13.8649 4.6575C14.032 4.72576 14.1785 4.83628 14.29 4.97822C14.3979 5.11555 14.4664 5.31388 14.6798 6.06099L15.6559 9.47766L15.6559 9.47767L15.6559 9.47769L15.6559 9.47771L15.6562 9.47864C15.8241 10.0663 15.938 10.4673 15.9977 10.7789C16.0567 11.0867 16.0463 11.2322 16.0206 11.3228C15.9497 11.5727 15.788 11.7871 15.5671 11.924C15.4871 11.9736 15.35 12.0236 15.0379 12.0514C14.7217 12.0796 14.3045 12.0802 13.6928 12.0802L11.9502 12.0802L11.0831 12.0802L11.3573 12.9028L12.0518 14.9861ZM5.56132 4.58023L5.56132 12.0801C5.17455 12.0798 4.90107 12.0772 4.68442 12.0595C4.44515 12.04 4.33075 12.0051 4.25528 11.9666C4.05928 11.8668 3.89993 11.7074 3.80006 11.5114C3.76161 11.4359 3.7267 11.3215 3.70715 11.0823C3.68701 10.8357 3.68652 10.5155 3.68652 10.0385L3.68652 6.62184C3.68652 6.14481 3.68701 5.82464 3.70715 5.57807C3.7267 5.3388 3.76161 5.2244 3.80006 5.14893C3.89993 4.95293 4.05928 4.79357 4.25528 4.69371C4.33075 4.65525 4.44515 4.62035 4.68442 4.6008C4.90107 4.5831 5.17455 4.58058 5.56132 4.58023ZM10.4105 18.3838L10.4106 18.3839L10.4107 18.384L10.645 18.8917L11.1756 18.7148C12.8838 18.1454 13.807 16.299 13.2376 14.5908L12.8174 13.3302L13.6928 13.3302L13.7219 13.3302C14.2972 13.3302 14.7705 13.3302 15.1488 13.2965C15.5376 13.2618 15.9023 13.1868 16.2255 12.9865C16.7113 12.6855 17.0672 12.2138 17.2231 11.664C17.3269 11.2981 17.2989 10.9269 17.2254 10.5436C17.1539 10.1706 17.0239 9.71549 16.8658 9.16235L16.8578 9.13434L16.8578 9.13429L16.8578 9.13427L16.8573 9.13247L16.8573 9.13243L15.8817 5.71761L15.8514 5.61143C15.684 5.023 15.5527 4.562 15.2729 4.20588C15.0275 3.89361 14.7052 3.65047 14.3375 3.5003C13.9182 3.32905 13.4389 3.32951 12.8271 3.3301L12.7167 3.33017L5.72819 3.33017L5.70281 3.33017C5.25769 3.33016 4.88616 3.33016 4.58263 3.35495C4.26606 3.38082 3.96885 3.43674 3.6878 3.57995C3.25659 3.79966 2.90601 4.15024 2.6863 4.58144C2.5431 4.86249 2.48717 5.15971 2.46131 5.47628C2.43651 5.7798 2.43651 6.15134 2.43652 6.59646L2.43652 6.62184L2.43652 10.0385L2.43652 10.0639C2.43651 10.509 2.43651 10.8805 2.46131 11.1841C2.48717 11.5006 2.5431 11.7978 2.6863 12.0789C2.90601 12.5101 3.25659 12.8607 3.6878 13.0804C3.96885 13.2236 4.26606 13.2795 4.58263 13.3054C4.88616 13.3302 5.2577 13.3302 5.70283 13.3302L5.72819 13.3302L6.28917 13.3302C7.42275 13.9593 8.43482 15.155 9.19227 16.2751C9.57828 16.846 9.88469 17.3768 10.0944 17.7646C10.199 17.9582 10.2792 18.1153 10.3326 18.223C10.3594 18.2768 10.3794 18.3182 10.3925 18.3456L10.4068 18.3758L10.41 18.3827L10.4105 18.3838Z" fill="black" fill-opacity="0.6" style="fill:black;fill-opacity:0.6;"/>
</svg>
