<svg width="20" height="20" viewBox="0 0 20 20" fill="none" xmlns="http://www.w3.org/2000/svg">
<path fill-rule="evenodd" clip-rule="evenodd" d="M10.4105 18.3826L10.411 18.3837L10.6454 18.8916L11.1761 18.7147C12.8843 18.1453 13.8075 16.299 13.2381 14.5908L12.8179 13.3301L13.7224 13.3301C14.2977 13.3301 14.771 13.3301 15.1493 13.2964C15.5381 13.2617 15.9028 13.1868 16.226 12.9865C16.7118 12.6854 17.0676 12.2137 17.2236 11.6639C17.3274 11.2981 17.2994 10.9269 17.2259 10.5435C17.1544 10.1705 17.0244 9.71543 16.8663 9.16229L16.8583 9.13421L16.8578 9.13237L15.8822 5.71755L15.8519 5.61137C15.6844 5.02294 15.5532 4.56194 15.2734 4.20582C15.028 3.89355 14.7057 3.65041 14.338 3.50024C13.9187 3.32899 13.4394 3.32945 12.8276 3.33004L12.7172 3.33011L5.7033 3.33011C5.25818 3.3301 4.88664 3.3301 4.58312 3.35489C4.26655 3.38076 3.96934 3.43668 3.68828 3.57989C3.25708 3.7996 2.9065 4.15018 2.68679 4.58138C2.54358 4.86243 2.48766 5.15965 2.46179 5.47622C2.437 5.77974 2.437 6.15128 2.43701 6.5964L2.43701 10.0638C2.437 10.5089 2.437 10.8805 2.46179 11.184C2.48766 11.5006 2.54358 11.7978 2.68679 12.0788C2.9065 12.51 3.25708 12.8606 3.68828 13.0803C3.96934 13.2235 4.26655 13.2795 4.58312 13.3053C4.88665 13.3301 5.25819 13.3301 5.70332 13.3301L6.28965 13.3301C7.42324 13.9592 8.43531 15.1549 9.19276 16.2751C9.57877 16.8459 9.88518 17.3767 10.0949 17.7645C10.1995 17.9581 10.2797 18.1153 10.3331 18.2229C10.3599 18.2768 10.3799 18.3182 10.393 18.3455L10.4073 18.3758L10.4105 18.3826ZM4.76022 11.2011C4.72851 11.1245 4.72851 11.0274 4.72851 10.8333L4.72851 5.83327C4.72851 5.63913 4.72851 5.54206 4.76022 5.46549C4.80251 5.36339 4.88363 5.28228 4.98572 5.23999C5.06229 5.20827 5.15937 5.20827 5.35351 5.20827C5.54765 5.20827 5.64472 5.20827 5.72129 5.23999C5.82339 5.28228 5.9045 5.36339 5.94679 5.46549C5.97851 5.54206 5.97851 5.63913 5.97851 5.83327L5.97851 10.8333C5.97851 11.0274 5.97851 11.1245 5.94679 11.2011C5.9045 11.3031 5.82339 11.3843 5.72129 11.4266C5.64472 11.4583 5.54765 11.4583 5.35351 11.4583C5.15937 11.4583 5.06229 11.4583 4.98572 11.4266C4.88363 11.3843 4.80251 11.3031 4.76022 11.2011Z" fill="#030A26" fill-opacity="0.65" style="fill:#030A26;fill:color(display-p3 0.0118 0.0392 0.1490);fill-opacity:0.65;"/>
</svg>
