<svg width="20" height="20" viewBox="0 0 20 20" fill="none" xmlns="http://www.w3.org/2000/svg">
<path fill-rule="evenodd" clip-rule="evenodd" d="M10.682 1.6174L10.6825 1.61631L10.9169 1.1084L11.4476 1.28529C13.1558 1.85468 14.079 3.70104 13.5096 5.40923L13.0894 6.66989H13.9939C14.5692 6.66988 15.0425 6.66987 15.4208 6.7036C15.8096 6.73825 16.1742 6.81323 16.4975 7.01353C16.9833 7.31456 17.3391 7.78625 17.4951 8.33607C17.5989 8.70192 17.5708 9.07313 17.4974 9.45645C17.4259 9.8295 17.2958 10.2846 17.1378 10.8377L17.1298 10.8658L17.1293 10.8676L16.1537 14.2824L16.1234 14.3886C15.9559 14.9771 15.8247 15.4381 15.5449 15.7942C15.2995 16.1064 14.9771 16.3496 14.6095 16.4998C14.1902 16.671 13.7109 16.6705 13.0991 16.67L12.9886 16.6699H5.97479C5.52966 16.6699 5.15813 16.6699 4.8546 16.6451C4.53803 16.6192 4.24082 16.5633 3.95977 16.4201C3.52856 16.2004 3.17798 15.8498 2.95827 15.4186C2.81507 15.1376 2.75914 14.8404 2.73328 14.5238C2.70848 14.2203 2.70849 13.8487 2.7085 13.4036V9.93618C2.70849 9.49106 2.70848 9.11952 2.73328 8.816C2.75914 8.49943 2.81507 8.20221 2.95827 7.92116C3.17798 7.48996 3.52856 7.13937 3.95977 6.91966C4.24082 6.77646 4.53803 6.72054 4.8546 6.69467C5.15813 6.66987 5.52967 6.66988 5.9748 6.66989H6.56114C7.69473 6.04077 8.7068 4.84506 9.46424 3.72491C9.85025 3.15407 10.1567 2.62328 10.3663 2.23548C10.471 2.04189 10.5511 1.88475 10.6046 1.77707C10.6313 1.72325 10.6514 1.68184 10.6644 1.65449L10.6788 1.62423L10.682 1.6174ZM5.03171 8.79895C4.99999 8.87552 4.99999 8.97259 4.99999 9.16673V14.1667C4.99999 14.3609 4.99999 14.4579 5.03171 14.5345C5.074 14.6366 5.15511 14.7177 5.25721 14.76C5.33378 14.7917 5.43085 14.7917 5.62499 14.7917C5.81914 14.7917 5.91621 14.7917 5.99278 14.76C6.09487 14.7177 6.17599 14.6366 6.21828 14.5345C6.24999 14.4579 6.24999 14.3609 6.24999 14.1667V9.16673C6.24999 8.97259 6.24999 8.87552 6.21828 8.79895C6.17599 8.69685 6.09487 8.61574 5.99278 8.57345C5.91621 8.54173 5.81914 8.54173 5.62499 8.54173C5.43085 8.54173 5.33378 8.54173 5.25721 8.57345C5.15511 8.61574 5.074 8.69685 5.03171 8.79895Z" fill="#030A26" fill-opacity="0.65" style="fill:#030A26;fill:color(display-p3 0.0118 0.0392 0.1490);fill-opacity:0.65;"/>
</svg>
