<svg width="20" height="20" viewBox="0 0 20 20" fill="none" xmlns="http://www.w3.org/2000/svg">
<path fill-rule="evenodd" clip-rule="evenodd" d="M12.3232 5.01388C12.6164 4.13455 12.268 3.19585 11.5321 2.7055C11.511 2.74528 11.4887 2.78681 11.4654 2.82995C11.2412 3.24463 10.9136 3.81224 10.4992 4.42505C9.69944 5.60783 8.52251 7.04084 7.08281 7.80872V15.4198H12.9882C13.7652 15.4198 13.9747 15.4085 14.1363 15.3425C14.3035 15.2742 14.45 15.1637 14.5615 15.0218C14.6694 14.8844 14.7378 14.6861 14.9513 13.939L15.9274 10.5223L15.9274 10.5223L15.9274 10.5223L15.9274 10.5223L15.9277 10.5214C16.0955 9.93375 16.2095 9.53269 16.2692 9.22109C16.3282 8.91333 16.3178 8.76782 16.2921 8.67719C16.2212 8.42726 16.0595 8.21286 15.8386 8.07603C15.7585 8.02641 15.6215 7.97642 15.3093 7.9486C14.9932 7.92041 14.5759 7.91983 13.9643 7.91983H12.2217H11.3546L11.6288 7.09718L12.3232 5.01388ZM5.83281 15.4198L5.8328 7.91988C5.44603 7.92023 5.17255 7.92276 4.95591 7.94046C4.71664 7.96001 4.60224 7.99491 4.52677 8.03336C4.33077 8.13323 4.17141 8.29258 4.07154 8.48859C4.03309 8.56406 3.99819 8.67846 3.97864 8.91773C3.95849 9.16429 3.95801 9.48447 3.95801 9.96149V13.3782C3.95801 13.8552 3.95849 14.1754 3.97864 14.4219C3.99819 14.6612 4.03309 14.7756 4.07154 14.8511C4.17141 15.0471 4.33077 15.2064 4.52677 15.3063C4.60224 15.3447 4.71664 15.3796 4.95591 15.3992C5.17255 15.4169 5.44603 15.4194 5.83281 15.4198ZM10.682 1.61625L10.6821 1.61606L10.6821 1.61597L10.9164 1.10834L11.4471 1.28523C13.1553 1.85462 14.0785 3.70098 13.5091 5.40917L13.0889 6.66983H13.9643H13.9934C14.5687 6.66982 15.042 6.66981 15.4203 6.70354C15.8091 6.73819 16.1737 6.81317 16.497 7.01347C16.9828 7.3145 17.3386 7.78619 17.4946 8.33601C17.5984 8.70186 17.5703 9.07307 17.4969 9.45639C17.4254 9.82944 17.2954 10.2845 17.1373 10.8376L17.1293 10.8657L17.1293 10.8657L17.1293 10.8657L17.1288 10.8675L17.1288 10.8676L16.1532 14.2824L16.1229 14.3886C15.9554 14.977 15.8242 15.438 15.5444 15.7941C15.299 16.1064 14.9767 16.3495 14.609 16.4997C14.1897 16.6709 13.7104 16.6705 13.0986 16.6699L12.9882 16.6698H5.99967H5.9743C5.52918 16.6698 5.15764 16.6698 4.85412 16.645C4.53755 16.6192 4.24033 16.5633 3.95928 16.4201C3.52807 16.2003 3.17749 15.8498 2.95779 15.4186C2.81458 15.1375 2.75866 14.8403 2.73279 14.5237C2.70799 14.2202 2.708 13.8487 2.70801 13.4035V13.3782V9.96149V9.93612C2.708 9.491 2.70799 9.11946 2.73279 8.81594C2.75866 8.49936 2.81458 8.20215 2.95779 7.9211C3.17749 7.48989 3.52807 7.13931 3.95928 6.9196C4.24033 6.7764 4.53755 6.72048 4.85412 6.69461C5.15765 6.66981 5.52919 6.66982 5.97432 6.66983H5.99967H6.56065C7.69424 6.04071 8.70631 4.845 9.46376 3.72485C9.84976 3.15401 10.1562 2.62322 10.3659 2.23542C10.4705 2.04183 10.5507 1.88469 10.6041 1.77701C10.6308 1.72319 10.6509 1.68178 10.664 1.65443L10.6783 1.62417L10.6815 1.61734L10.682 1.61625Z" fill="black" fill-opacity="0.6" style="fill:black;fill-opacity:0.6;"/>
</svg>
