<svg width="20" height="20" viewBox="0 0 20 20" fill="none" xmlns="http://www.w3.org/2000/svg">
<path d="M16.7718 12.0833H13.9802C14.0956 11.4121 14.1636 10.7123 14.1636 10C14.1636 9.2877 14.0956 8.58795 13.9802 7.91667H16.7718C16.9742 8.57536 17.0832 9.27496 17.0832 10C17.0832 10.7251 16.9742 11.4247 16.7718 12.0833ZM12.71 12.0833H7.28936C7.16172 11.4113 7.08571 10.7099 7.08571 10C7.08571 9.29015 7.16172 8.58874 7.28936 7.91667H12.71C12.8376 8.58874 12.9136 9.29015 12.9136 10C12.9136 10.7099 12.8376 11.4113 12.71 12.0833ZM13.7056 6.66667C13.5543 6.09966 13.3749 5.56413 13.1827 5.07181C12.9257 4.41344 12.6399 3.8181 12.3578 3.31863C14.0354 3.91067 15.4232 5.11664 16.2514 6.66667H13.7056ZM10.5938 2.94123C10.9374 3.31696 11.5186 4.2464 12.0183 5.52641C12.1585 5.8855 12.2904 6.26739 12.4076 6.66667H7.59183C7.70907 6.26741 7.84096 5.88553 7.98119 5.52647C8.48109 4.24637 9.0625 3.31689 9.4061 2.9412C9.60186 2.92496 9.79988 2.91667 9.99984 2.91667C10.1999 2.91667 10.398 2.92496 10.5938 2.94123ZM12.4076 13.3333C12.2904 13.7326 12.1585 14.1145 12.0183 14.4736C11.5186 15.7536 10.9374 16.683 10.5938 17.0588C10.398 17.075 10.1999 17.0833 9.99984 17.0833C9.79988 17.0833 9.60186 17.0751 9.4061 17.0588C9.0625 16.6831 8.48109 15.7536 7.98119 14.4735C7.84096 14.1145 7.70907 13.7326 7.59183 13.3333H12.4076ZM12.3578 16.6814C12.6399 16.1819 12.9257 15.5866 13.1827 14.9282C13.3749 14.4359 13.5543 13.9004 13.7056 13.3333H16.2514C15.4232 14.8834 14.0354 16.0893 12.3578 16.6814ZM5.83571 10C5.83571 10.7123 5.90368 11.4121 6.01911 12.0833H3.22784C3.02544 11.4247 2.9165 10.7251 2.9165 10C2.9165 9.27496 3.02544 8.57536 3.22784 7.91667H6.01911C5.90368 8.58795 5.83571 9.2877 5.83571 10ZM6.81682 5.07176C6.62456 5.5641 6.44517 6.09964 6.29375 6.66667H3.74826C4.57647 5.11662 5.96431 3.91064 7.64191 3.3186C7.35974 3.81807 7.07392 4.4134 6.81682 5.07176ZM3.74826 13.3333H6.29375C6.44517 13.9004 6.62456 14.4359 6.81682 14.9283C7.07392 15.5866 7.35975 16.1819 7.64191 16.6814C5.96431 16.0894 4.57647 14.8834 3.74826 13.3333ZM9.99984 18.3333C14.6022 18.3333 18.3332 14.6024 18.3332 10C18.3332 5.39763 14.6022 1.66667 9.99984 1.66667C5.39746 1.66667 1.6665 5.39763 1.6665 10C1.6665 14.6024 5.39746 18.3333 9.99984 18.3333Z" fill="black" fill-opacity="0.9"/>
</svg>
