<svg width="20" height="20" viewBox="0 0 20 20" fill="none" xmlns="http://www.w3.org/2000/svg">
<path fill-rule="evenodd" clip-rule="evenodd" d="M12.0832 5.00001V9.16667C12.0832 10.3173 11.1504 11.25 9.99984 11.25C8.84924 11.25 7.9165 10.3173 7.9165 9.16667V5C7.9165 3.84941 8.84924 2.91667 9.99984 2.91667C11.1504 2.91667 12.0832 3.84941 12.0832 5.00001ZM6.6665 5C6.6665 3.15906 8.15889 1.66667 9.99984 1.66667C11.8408 1.66667 13.3332 3.15906 13.3332 5.00001V9.16667C13.3332 11.0076 11.8408 12.5 9.99984 12.5C8.15889 12.5 6.6665 11.0076 6.6665 9.16667V5ZM4.7915 8.75C4.7915 8.51989 4.60496 8.33334 4.37484 8.33334H3.95817C3.72805 8.33334 3.5415 8.51989 3.5415 8.75V9.16667C3.5415 12.5227 6.10125 15.2808 9.37484 15.5952V16.6667H7.02762C6.82818 16.6667 6.6665 16.8283 6.6665 17.0278V17.5556C6.6665 17.755 6.82818 17.9167 7.02762 17.9167H12.9721C13.1715 17.9167 13.3332 17.755 13.3332 17.5556V17.0278C13.3332 16.8283 13.1715 16.6667 12.9721 16.6667H10.6248V15.5952C13.8984 15.2808 16.4582 12.5227 16.4582 9.16667V8.75C16.4582 8.51989 16.2716 8.33334 16.0415 8.33334H15.6248C15.3947 8.33334 15.2082 8.51989 15.2082 8.75V9.16667C15.2082 12.0432 12.8763 14.375 9.99984 14.375C7.12335 14.375 4.7915 12.0432 4.7915 9.16667V8.75Z" fill="black" fill-opacity="0.9"/>
</svg>
